<?xml version="1.0" standalone="no"?>
<!DOCTYPE svg PUBLIC "-//W3C//DTD SVG 20010904//EN"
 "http://www.w3.org/TR/2001/REC-SVG-20010904/DTD/svg10.dtd">
<svg version="1.0" xmlns="http://www.w3.org/2000/svg"
 width="700.000000pt" height="700.000000pt" viewBox="0 0 700.000000 700.000000"
 preserveAspectRatio="xMidYMid meet">
<metadata>
Created by potrace 1.11, written by Peter Selinger 2001-2013
</metadata>
<g transform="translate(0.000000,700.000000) scale(0.100000,-0.100000)"
fill="#000000" stroke="none">
<path d="M2253 6285 c-140 -25 -278 -85 -391 -170 -64 -48 -161 -151 -206
-217 -63 -94 -126 -262 -141 -373 -6 -53 -7 -237 -1 -255 3 -8 8 -32 11 -54 9
-64 54 -186 99 -271 24 -44 101 -180 171 -302 l129 -223 293 0 c161 0 293 2
293 5 0 5 -11 24 -57 100 -31 52 -272 466 -304 522 -10 17 -30 51 -45 75 -38
60 -70 135 -80 188 -44 244 131 459 386 473 135 8 265 -61 348 -183 16 -25 90
-148 164 -275 74 -126 170 -290 213 -364 61 -104 76 -137 68 -150 -5 -9 -25
-43 -43 -76 -18 -33 -77 -136 -130 -230 -147 -257 -265 -465 -290 -510 -59
-107 -134 -234 -138 -231 -1 2 10 25 26 52 15 27 40 74 54 105 14 31 73 139
131 240 57 101 112 199 121 217 l17 33 -871 -2 c-937 -2 -943 -2 -1094 -55
-307 -107 -537 -383 -592 -709 -10 -60 -11 -224 -2 -275 5 -25 11 -58 14 -73
2 -16 14 -56 26 -90 98 -287 342 -513 633 -586 88 -22 123 -24 479 -27 203 -2
371 -5 372 -7 2 -2 -62 -118 -143 -258 -156 -272 -202 -362 -226 -449 -26 -91
-29 -110 -33 -230 -8 -254 87 -483 280 -676 129 -129 260 -201 439 -240 84
-19 241 -25 312 -14 94 16 110 20 180 44 118 41 216 99 310 185 91 83 153 170
273 381 11 19 36 64 57 100 21 36 46 81 57 100 11 19 34 58 51 87 l31 52 26
-47 c84 -151 277 -484 304 -522 106 -156 269 -283 443 -344 109 -38 170 -49
288 -50 144 -1 203 8 324 49 293 99 506 337 587 655 26 104 26 315 0 420 -19
74 -86 225 -147 330 -18 30 -81 139 -140 243 l-108 187 42 0 c244 0 672 9 707
15 73 11 226 65 287 101 30 19 59 34 64 34 5 0 9 4 9 8 0 4 12 15 28 24 89 54
208 199 272 332 66 138 90 241 91 397 4 385 -243 732 -607 855 -44 14 -88 28
-99 30 -106 18 -183 22 -465 23 -178 1 -326 3 -327 5 -2 2 45 86 103 187 169
292 242 429 264 494 34 102 48 201 45 314 -8 333 -199 632 -500 781 -138 69
-231 91 -380 93 -134 2 -183 -4 -282 -34 -144 -45 -278 -127 -391 -240 -85
-85 -127 -144 -280 -406 -71 -122 -136 -231 -144 -242 -14 -20 -24 -6 -168
237 -199 334 -221 365 -326 462 -107 98 -241 169 -394 210 -103 27 -272 34
-377 15z m2447 -530 c109 -39 192 -111 240 -209 67 -138 57 -261 -36 -421 -25
-44 -55 -96 -67 -115 -11 -19 -27 -47 -36 -62 -9 -15 -83 -143 -165 -283
l-150 -255 -232 0 -231 0 -113 201 -113 201 -17 -29 c-34 -58 -99 -171 -154
-268 -31 -56 -63 -110 -72 -120 -9 -12 -8 -6 4 15 11 19 32 58 47 85 16 28 46
82 68 120 22 39 52 93 67 120 16 28 136 235 268 460 292 500 313 526 473 570
63 17 155 13 219 -10z m-1179 -1482 c7 -16 24 -45 36 -65 12 -20 42 -72 66
-115 24 -43 100 -177 169 -298 334 -589 388 -687 384 -693 -5 -9 -1342 -9
-1350 -1 -6 5 48 111 84 169 6 8 56 96 111 195 56 99 176 310 267 470 90 159
173 306 184 327 11 21 23 38 27 38 4 0 14 -12 22 -27z m-1298 -387 c4 -10 57
-101 117 -202 l111 -183 -113 -198 c-61 -109 -115 -200 -119 -203 -5 -3 -225
-5 -491 -4 -478 1 -484 1 -543 24 -174 66 -279 217 -274 391 5 166 123 320
284 372 69 22 65 22 570 22 431 0 450 -1 458 -19z m3552 0 c163 -49 282 -197
290 -362 10 -188 -103 -348 -290 -412 -50 -17 -981 -24 -994 -7 -7 8 -141 237
-212 363 -22 38 -34 10 115 257 53 88 96 165 96 170 0 7 156 10 468 10 416 -1
473 -3 527 -19z m-3205 -186 c-6 -11 -13 -20 -16 -20 -2 0 0 9 6 20 6 11 13
20 16 20 2 0 0 -9 -6 -20z m411 -1118 c3 -4 22 -36 42 -72 19 -36 67 -122 106
-190 39 -68 71 -127 71 -131 0 -10 3 -5 -240 -419 -250 -427 -251 -428 -357
-490 -196 -115 -458 -32 -554 176 -51 112 -49 234 8 346 13 27 73 132 133 234
61 103 110 188 110 190 0 3 12 23 27 47 15 23 34 53 42 67 7 14 20 36 28 50 8
14 36 63 63 110 l48 85 63 5 c91 7 402 1 410 -8z m1494 6 c12 -13 448 -765
463 -799 28 -62 35 -103 34 -188 -3 -205 -184 -374 -398 -373 -119 0 -238 61
-313 159 -34 43 -461 768 -461 781 0 4 31 62 69 129 37 66 71 127 75 134 4 8
24 46 46 84 l39 70 123 5 c122 5 318 4 323 -2z"/>
</g>
</svg>
