<svg id="Layer_1" data-name="Layer 1" xmlns="http://www.w3.org/2000/svg" viewBox="0 0 453.4 85.1"><defs><style>.cls-1{fill:#0b1f8f;}.cls-2{fill:none;}.cls-3{fill:#0bca6a;}.cls-4{fill:#b1d136;}.cls-5{fill:#4fd1dc;}.cls-6{fill:#002d73;}</style></defs><title>Tekengebied 1</title><path class="cls-1" d="M128,11.8h41.8v6.8H135.4V37.2h33v6.9h-33V64.2h35.8v7.1H128Z"/><path class="cls-1" d="M220.6,11.7V71.3H214l-.3-7.7A18,18,0,0,1,198,72.4c-12,0-21.2-7.6-21.2-22,0-14.1,9.3-21.9,21.2-21.9,5.9,0,12.7,2.9,15.6,8.6V11.8l7-.1Zm-37,38.5c0,10.3,6.7,15.5,14.9,15.5,8.4,0,14.9-6.4,14.9-15.5S206.9,35,198.4,35C190.3,34.9,183.6,40.3,183.6,50.2Z"/><path class="cls-1" d="M264.5,71.2l-.3-6.7a16.46,16.46,0,0,1-14.3,7.7c-10.7,0-17.3-7.2-17.3-19.5V29.3h7V52.7c0,8.2,3.7,13.1,11.8,13.1,7.7,0,12.6-6.3,12.6-14V29.3h7.1v42h-6.6Z"/><path class="cls-1" d="M318.5,71.2l-.2-7.4c-3.3,5.7-9.7,8.4-15.5,8.4-12.1,0-21.5-8.3-21.5-22,0-14.2,9.7-21.9,21.6-21.9,6.6,0,12.3,2.6,15.5,8.6l.1-7.6h6.8v42h-6.8ZM288.1,50.5c0,9.3,6.8,15.4,15.1,15.4,20.3,0,20.4-31,0-30.9C294.9,35,288.1,40.7,288.1,50.5Z"/><path class="cls-1" d="M345.2,35.5c3.1-5.4,8.2-7.1,12.9-7.1a16.5,16.5,0,0,1,9.8,3.3l-3.1,5.9a11.64,11.64,0,0,0-7.3-2.4c-6.7,0-12.3,4.9-12.3,12.6V71.2h-7V29.4h6.5Z"/><path class="cls-1" d="M389.8,29.1h12.9V35h-13V58c0,4.9,1.5,8.1,6.6,8.1a14.48,14.48,0,0,0,5.8-1.6l2,5.8a18.69,18.69,0,0,1-8.2,2c-9.1.3-13.3-5.1-13.3-14.3V35.1h-8.4V29.2h8.4V17.8l7.1-.8V29.1Z"/><path class="cls-1" d="M451,64.8c-4.4,5.1-11.6,7.5-18.2,7.5-13,0-22.1-8.5-22.1-22.2,0-12.7,9.1-21.7,21.7-21.7,12.8,0,22.6,7.6,21,24.3H417.6c.8,8.2,7.3,13.2,15.3,13.2,4.7,0,10.6-1.8,13.3-5.2l4.8,4.1Zm-4.2-17.9c-.3-8.1-5.9-12.2-14.1-12.2-7.3,0-13.6,4.1-15,12.2Z"/><path class="cls-2" d="M27.5,36.4H14a6.1,6.1,0,1,0,0,12.2H27.5L31,42.5Z"/><path class="cls-2" d="M55.1,56.4l-3.5,6.1,6.8,11.7a6.14,6.14,0,0,0,5.3,3.1,6.81,6.81,0,0,0,3.1-.8,6.35,6.35,0,0,0,2.9-3.7,6.45,6.45,0,0,0-.6-4.7L62.3,56.4Z"/><path class="cls-2" d="M42.6,22.6,35.8,10.9A6.35,6.35,0,0,0,32.1,8a6.45,6.45,0,0,0-4.7.6A6.18,6.18,0,0,0,25.2,17L32,28.7h7.1Z"/><path class="cls-2" d="M66.6,48.7H80.1a6.1,6.1,0,1,0,0-12.2H66.6l-3.5,6.1Z"/><path class="cls-2" d="M32,56.4,25.2,68.1a6.38,6.38,0,0,0-.6,4.7,5.67,5.67,0,0,0,2.9,3.7,6.5,6.5,0,0,0,3.1.8,6.14,6.14,0,0,0,5.3-3.1l6.8-11.7-3.5-6.1Z"/><path class="cls-2" d="M62.2,28.7,69,17a6.12,6.12,0,0,0-2.3-8.4A6.38,6.38,0,0,0,62,8a5.67,5.67,0,0,0-3.7,2.9L51.5,22.6,55,28.7Z"/><polygon class="cls-3" points="42.6 62.6 46.2 56.4 39.1 56.4 42.6 62.6"/><polygon class="cls-3" points="34.6 36.4 27.5 36.4 31.1 42.6 34.6 36.4"/><polygon class="cls-1" points="63.1 42.6 66.6 36.4 59.5 36.4 63.1 42.6"/><path class="cls-3" d="M42.5,7A14,14,0,0,0,34.1.5,13.33,13.33,0,0,0,23.6,1.9a13.88,13.88,0,0,0-5.1,18.9L23,28.7h8.9L25.2,17a6.12,6.12,0,0,1,2.3-8.4A6.38,6.38,0,0,1,32.2,8a5.67,5.67,0,0,1,3.7,2.9l6.8,11.7,4.5-7.7Z"/><polygon class="cls-4" points="54.2 42.6 50.6 36.4 50.6 36.4 54.2 42.6"/><polygon class="cls-4" points="68.9 68.2 62.2 56.4 62.2 56.4 68.9 68.2"/><polygon class="cls-4" points="54.2 42.6 54.2 42.6 57.7 48.7 57.7 48.7 54.2 42.6"/><path class="cls-1" d="M48,56.4H46.2l-3.5,6.1L35.9,74.2a6.14,6.14,0,0,1-5.3,3.1,6.81,6.81,0,0,1-3.1-.8,6.35,6.35,0,0,1-2.9-3.7,6.45,6.45,0,0,1,.6-4.7L32,56.4H23.1l-4.5,7.9a13.76,13.76,0,0,0,5.1,18.9,13.75,13.75,0,0,0,18.9-5l4.5-7.9,4.5-7.7,3.5-6.1H48Z"/><path class="cls-1" d="M70.5,1.9A13.76,13.76,0,0,0,51.6,7l-4.5,7.9-4.5,7.7-3.5,6.1-3.6,6.2-.9,1.6-3.5,6.1-3.5,6.1h8.9L40,42.6l3.5-6.1L47,30.4l.9-1.6,3.5-6.1L58.2,11a6.35,6.35,0,0,1,3.7-2.9,6.45,6.45,0,0,1,4.7.6,6.3,6.3,0,0,1,2.3,8.4L62.1,28.8H71l4.5-7.9A13.77,13.77,0,0,0,70.5,1.9Z"/><path class="cls-5" d="M80.2,28.7H55.1l2.1,3.6h0l1.5,2.5.9,1.6H80.2a6.1,6.1,0,0,1,0,12.2H66.7l4.5,7.7h9.1A13.93,13.93,0,0,0,94.2,42.4,14.11,14.11,0,0,0,80.2,28.7Z"/><polygon class="cls-6" points="58.6 50.3 62.2 56.4 62.2 56.4 58.6 50.3"/><polygon class="cls-6" points="57.7 48.7 58.6 50.3 58.6 50.3 57.7 48.7"/><path class="cls-5" d="M58.6,50.3l-.9-1.6H14a6.1,6.1,0,0,1,0-12.2H34.6l.9-1.6L39,28.8H13.9a13.9,13.9,0,0,0,0,27.8H62.1Z"/><polygon class="cls-4" points="63.1 42.6 66.6 48.7 66.6 48.7 63.1 42.6"/><polygon class="cls-4" points="63.1 42.6 63.1 42.6 59.5 36.4 59.5 36.4 63.1 42.6"/><polygon class="cls-4" points="57.2 32.3 58.6 34.9 58.6 34.9 57.2 32.3"/><polygon class="cls-4" points="59.5 36.4 59.5 36.4 58.6 34.9 58.6 34.9 59.5 36.4"/><path class="cls-3" d="M75.6,64.3l-4.5-7.9-4.5-7.7-3.5-6.1-3.5-6.1-.9-1.6-1.5-2.5-2.1-3.6-3.6-6.2L48,28.7l-.9,1.6,3.5,6.1h0l3.5,6.1,3.6,6.1.9,1.6,3.5,6.1L68.9,68a6.38,6.38,0,0,1,.6,4.7,5.67,5.67,0,0,1-2.9,3.7,6.5,6.5,0,0,1-3.1.8,6.14,6.14,0,0,1-5.3-3.1L51.5,62.6,47,70.3l4.5,7.9a13.89,13.89,0,0,0,12,6.9,13.06,13.06,0,0,0,6.9-1.9,14,14,0,0,0,6.5-8.4A12.9,12.9,0,0,0,75.6,64.3Z"/></svg>